<?xml version="1.0" encoding="UTF-8" standalone="no" ?>
<!DOCTYPE svg PUBLIC "-//W3C//DTD SVG 1.1//EN" "http://www.w3.org/Graphics/SVG/1.1/DTD/svg11.dtd">
<svg xmlns="http://www.w3.org/2000/svg" xmlns:xlink="http://www.w3.org/1999/xlink" version="1.1" width="1080" height="1080" viewBox="0 0 1080 1080" xml:space="preserve">
<desc>Created with Fabric.js 5.2.4</desc>
<defs>
</defs>
<g transform="matrix(1 0 0 1 540 540)" id="65c292c7-8fad-4fb2-bc10-004ea2fef175"  >
<rect style="stroke: none; stroke-width: 1; stroke-dasharray: none; stroke-linecap: butt; stroke-dashoffset: 0; stroke-linejoin: miter; stroke-miterlimit: 4; fill: rgb(255,255,255); fill-rule: nonzero; opacity: 1; visibility: hidden;" vector-effect="non-scaling-stroke"  x="-540" y="-540" rx="0" ry="0" width="1080" height="1080" />
</g>
<g transform="matrix(1 0 0 1 540 540)" id="21c065ab-5247-4d6d-9f7b-75c54355502d"  >
</g>
<g transform="matrix(NaN NaN NaN NaN 0 0)"  >
<g style=""   >
</g>
</g>
<g transform="matrix(2.44 0 0 2.44 533.13 543.6)"  >
<g style="" vector-effect="non-scaling-stroke"   >
		<g transform="matrix(0.13 0 0 -0.13 0 -0.63)"  >
<path style="stroke: none; stroke-width: 1; stroke-dasharray: none; stroke-linecap: butt; stroke-dashoffset: 0; stroke-linejoin: miter; stroke-miterlimit: 4; fill: rgb(161,44,47); fill-rule: nonzero; opacity: 1;" vector-effect="non-scaling-stroke"  transform=" translate(-2743.62, -2007.6)" d="M 2555 3515 C 2366 3490 2227 3448 2078 3374 C 1739 3204 1487 2924 1340 2554 C 1323 2512 1311 2476 1313 2473 C 1315 2471 1328 2497 1340 2530 C 1352 2563 1367 2593 1371 2596 C 1376 2599 1369 2572 1356 2537 C 1316 2429 1282 2280 1270 2151 C 1263 2084 1260 2027 1262 2024 C 1265 2022 1272 2073 1279 2137 C 1286 2202 1304 2305 1320 2365 C 1346 2470 1409 2645 1417 2636 C 1419 2634 1411 2609 1400 2580 C 1389 2551 1381 2525 1384 2523 C 1386 2520 1391 2529 1395 2542 C 1410 2590 1504 2768 1554 2840 C 1628 2948 1816 3133 1929 3209 C 2043 3284 2106 3317 2224 3360 C 2419 3431 2569 3455 2765 3447 C 2981 3437 3124 3400 3325 3300 C 3694 3116 3964 2778 4064 2374 C 4095 2249 4111 2089 4104 1975 C 4097 1839 4061 1652 4019 1534 C 3967 1384 3858 1196 3762 1088 C 3738 1062 3723 1040 3728 1040 C 3734 1040 3740 1043 3742 1048 C 3744 1052 3767 1075 3794 1100 L 3843 1145 L 3824 1111 C 3793 1054 3637 898 3549 834 C 3504 802 3453 762 3436 747 L 3405 718 L 3445 741 C 3518 783 3594 837 3671 903 C 3753 973 3913 1157 3904 1171 C 3901 1176 3906 1183 3914 1186 C 3923 1189 3928 1196 3925 1200 C 3922 1205 3924 1211 3929 1215 C 3948 1226 4060 1460 4091 1551 C 4108 1602 4130 1686 4141 1739 C 4167 1865 4177 2118 4160 2199 C 4153 2232 4151 2267 4155 2277 C 4159 2287 4162 2309 4162 2325 L 4161 2355 L 4170 2326 C 4190 2263 4203 2093 4196 1980 C 4171 1548 4031 1219 3755 945 C 3601 792 3417 675 3212 600 C 3172 586 3142 571 3146 568 C 3157 557 2975 514 2845 497 C 2822 494 2824 493 2857 491 C 2919 489 3091 525 3205 564 C 3634 708 3983 1048 4134 1468 C 4162 1547 4166 1563 4149 1540 C 4140 1528 4139 1528 4144 1543 C 4147 1553 4150 1567 4150 1573 C 4150 1580 4155 1579 4161 1570 C 4169 1558 4170 1559 4165 1576 C 4162 1588 4173 1651 4189 1716 C 4225 1862 4233 1972 4220 2132 C 4198 2379 4129 2609 4024 2777 C 3869 3025 3686 3203 3453 3333 C 3350 3391 3200 3454 3140 3464 C 3120 3468 3137 3458 3180 3442 C 3376 3367 3561 3254 3681 3138 C 3722 3098 3738 3081 3716 3101 C 3693 3120 3650 3157 3620 3182 C 3443 3327 3216 3434 2985 3480 C 2936 3490 2909 3499 2925 3499 C 2942 3499 2982 3493 3015 3485 C 3082 3469 3122 3466 3075 3481 C 2951 3520 2708 3536 2555 3515 z M 3937 2842 C 3968 2796 4015 2710 4041 2650 C 4088 2545 4141 2385 4139 2351 C 4139 2342 4128 2371 4116 2415 C 4103 2459 4081 2527 4066 2565 C 4036 2643 3940 2829 3906 2875 C 3894 2892 3871 2923 3856 2945 C 3828 2985 3828 2985 3854 2955 C 3869 2939 3906 2887 3937 2842 z M 4158 2374 C 4155 2360 4153 2362 4148 2383 C 4145 2402 4146 2408 4152 2402 C 4158 2396 4160 2384 4158 2374 z M 4147 2298 C 4144 2291 4142 2296 4142 2310 C 4142 2324 4144 2329 4147 2323 C 4149 2316 4149 2304 4147 2298 z M 4053 1315 C 4050 1306 4045 1301 4043 1304 C 4040 1307 4041 1313 4045 1319 C 4054 1335 4060 1332 4053 1315 z M 4024 1258 C 3985 1181 3879 1039 3797 953 C 3708 860 3572 750 3496 711 C 3468 696 3463 695 3480 707 C 3746 902 3894 1054 4004 1243 C 4036 1296 4049 1307 4024 1258 z" stroke-linecap="round" />
</g>
		<g transform="matrix(0.13 0 0 -0.13 -5.35 -107.66)"  >
<path style="stroke: none; stroke-width: 1; stroke-dasharray: none; stroke-linecap: butt; stroke-dashoffset: 0; stroke-linejoin: miter; stroke-miterlimit: 4; fill: rgb(161,44,47); fill-rule: nonzero; opacity: 1;" vector-effect="non-scaling-stroke"  transform=" translate(-2703.49, -2810.38)" d="M 2647 2852 C 2624 2827 2626 2787 2650 2765 C 2661 2755 2671 2749 2673 2751 C 2675 2753 2684 2767 2693 2783 C 2706 2802 2719 2810 2740 2810 C 2756 2810 2772 2815 2775 2820 C 2778 2826 2775 2830 2768 2830 C 2761 2830 2749 2839 2742 2850 C 2726 2876 2669 2877 2647 2852 z" stroke-linecap="round" />
</g>
		<g transform="matrix(0.13 0 0 -0.13 -2.54 -102.32)"  >
<path style="stroke: none; stroke-width: 1; stroke-dasharray: none; stroke-linecap: butt; stroke-dashoffset: 0; stroke-linejoin: miter; stroke-miterlimit: 4; fill: rgb(161,44,47); fill-rule: nonzero; opacity: 1;" vector-effect="non-scaling-stroke"  transform=" translate(-2724.54, -2770.29)" d="M 2718 2770 C 2695 2746 2694 2743 2711 2747 C 2729 2752 2757 2787 2748 2795 C 2746 2796 2733 2785 2718 2770 z" stroke-linecap="round" />
</g>
		<g transform="matrix(0.13 0 0 -0.13 -1.86 -57.13)"  >
<path style="stroke: none; stroke-width: 1; stroke-dasharray: none; stroke-linecap: butt; stroke-dashoffset: 0; stroke-linejoin: miter; stroke-miterlimit: 4; fill: rgb(161,44,47); fill-rule: nonzero; opacity: 1;" vector-effect="non-scaling-stroke"  transform=" translate(-2729.68, -2431.35)" d="M 2632 2722 C 2616 2711 2568 2545 2572 2511 C 2575 2485 2576 2485 2662 2482 L 2748 2479 L 2761 2409 C 2775 2333 2790 2303 2809 2315 C 2824 2324 2814 2497 2798 2517 C 2793 2524 2762 2532 2729 2536 C 2673 2542 2670 2544 2670 2570 C 2670 2586 2673 2605 2676 2614 C 2681 2628 2685 2628 2706 2611 C 2719 2601 2750 2589 2774 2586 C 2798 2582 2823 2574 2828 2567 C 2845 2546 2920 2351 2920 2326 C 2920 2296 2884 2280 2816 2280 C 2707 2280 2675 2311 2705 2384 C 2730 2444 2723 2450 2620 2450 L 2530 2450 L 2530 2530 L 2530 2610 L 2495 2610 C 2464 2610 2460 2607 2460 2585 C 2460 2567 2455 2560 2440 2560 C 2425 2560 2420 2567 2420 2585 C 2420 2607 2416 2610 2385 2610 L 2350 2610 L 2350 2511 C 2350 2398 2349 2400 2437 2400 L 2492 2400 L 2461 2365 C 2409 2305 2404 2237 2453 2232 C 2471 2230 2480 2223 2480 2211 C 2480 2158 2562 2115 2611 2140 C 2642 2156 2669 2190 2670 2213 C 2670 2228 2682 2230 2788 2230 L 2906 2230 L 2919 2194 C 2928 2168 2942 2154 2967 2144 C 3040 2113 3105 2159 3098 2237 C 3096 2261 3099 2281 3105 2283 C 3124 2290 3077 2343 3039 2358 C 3018 2366 2998 2382 2994 2393 C 2991 2404 2963 2448 2934 2491 C 2904 2534 2880 2573 2880 2579 C 2880 2585 2889 2590 2901 2590 C 2917 2590 2921 2595 2918 2618 C 2916 2641 2910 2646 2882 2648 C 2860 2650 2841 2645 2829 2635 C 2816 2622 2802 2619 2775 2624 C 2756 2628 2740 2634 2740 2639 C 2740 2652 2669 2730 2657 2730 C 2650 2730 2639 2726 2632 2722 z M 3044 2261 C 3067 2235 3061 2198 3031 2183 C 2990 2163 2937 2209 2958 2247 C 2967 2262 2969 2261 2981 2242 C 3001 2211 3014 2215 3007 2250 C 2999 2285 3017 2291 3044 2261 z M 2630 2222 C 2630 2208 2605 2181 2590 2180 C 2563 2176 2552 2180 2536 2196 C 2509 2222 2518 2230 2575 2230 C 2605 2230 2630 2226 2630 2222 z" stroke-linecap="round" />
</g>
		<g transform="matrix(0.13 0 0 -0.13 -183.84 -61.73)"  >
<path style="stroke: none; stroke-width: 1; stroke-dasharray: none; stroke-linecap: butt; stroke-dashoffset: 0; stroke-linejoin: miter; stroke-miterlimit: 4; fill: rgb(161,44,47); fill-rule: nonzero; opacity: 1;" vector-effect="non-scaling-stroke"  transform=" translate(-1364.81, -2465.86)" d="M 1361 2464 C 1361 2453 1364 2450 1367 2458 C 1370 2465 1369 2474 1366 2477 C 1363 2481 1360 2475 1361 2464 z" stroke-linecap="round" />
</g>
		<g transform="matrix(0.13 0 0 -0.13 -186.51 -52.4)"  >
<path style="stroke: none; stroke-width: 1; stroke-dasharray: none; stroke-linecap: butt; stroke-dashoffset: 0; stroke-linejoin: miter; stroke-miterlimit: 4; fill: rgb(161,44,47); fill-rule: nonzero; opacity: 1;" vector-effect="non-scaling-stroke"  transform=" translate(-1344.81, -2395.86)" d="M 1341 2394 C 1341 2383 1344 2380 1347 2388 C 1350 2395 1349 2404 1346 2407 C 1343 2411 1340 2405 1341 2394 z" stroke-linecap="round" />
</g>
		<g transform="matrix(0.13 0 0 -0.13 -187.84 -47.06)"  >
<path style="stroke: none; stroke-width: 1; stroke-dasharray: none; stroke-linecap: butt; stroke-dashoffset: 0; stroke-linejoin: miter; stroke-miterlimit: 4; fill: rgb(161,44,47); fill-rule: nonzero; opacity: 1;" vector-effect="non-scaling-stroke"  transform=" translate(-1334.81, -2355.86)" d="M 1331 2354 C 1331 2343 1334 2340 1337 2348 C 1340 2355 1339 2364 1336 2367 C 1333 2371 1330 2365 1331 2354 z" stroke-linecap="round" />
</g>
		<g transform="matrix(0.13 0 0 -0.13 189.55 -34.3)"  >
<path style="stroke: none; stroke-width: 1; stroke-dasharray: none; stroke-linecap: butt; stroke-dashoffset: 0; stroke-linejoin: miter; stroke-miterlimit: 4; fill: rgb(161,44,47); fill-rule: nonzero; opacity: 1;" vector-effect="non-scaling-stroke"  transform=" translate(-4165.25, -2260.18)" d="M 4162 2260 C 4162 2246 4164 2241 4167 2248 C 4169 2254 4169 2266 4167 2273 C 4164 2279 4162 2274 4162 2260 z" stroke-linecap="round" />
</g>
		<g transform="matrix(0.13 0 0 -0.13 -191.84 -24.4)"  >
<path style="stroke: none; stroke-width: 1; stroke-dasharray: none; stroke-linecap: butt; stroke-dashoffset: 0; stroke-linejoin: miter; stroke-miterlimit: 4; fill: rgb(161,44,47); fill-rule: nonzero; opacity: 1;" vector-effect="non-scaling-stroke"  transform=" translate(-1304.81, -2185.86)" d="M 1301 2184 C 1301 2173 1304 2170 1307 2178 C 1310 2185 1309 2194 1306 2197 C 1303 2201 1300 2195 1301 2184 z" stroke-linecap="round" />
</g>
		<g transform="matrix(0.13 0 0 -0.13 -105.08 36.39)"  >
<path style="stroke: none; stroke-width: 1; stroke-dasharray: none; stroke-linecap: butt; stroke-dashoffset: 0; stroke-linejoin: miter; stroke-miterlimit: 4; fill: rgb(161,44,47); fill-rule: nonzero; opacity: 1;" vector-effect="non-scaling-stroke"  transform=" translate(-1955.5, -1730)" d="M 1770 1730 L 1770 1530 L 1820 1530 L 1870 1530 L 1870 1610 C 1870 1673 1873 1690 1884 1690 C 1892 1690 1925 1654 1956 1610 L 2014 1530 L 2077 1530 L 2141 1530 L 2065 1631 C 2023 1686 1990 1737 1993 1743 C 1995 1750 2027 1792 2064 1837 C 2100 1882 2130 1921 2130 1925 C 2130 1928 2104 1930 2073 1930 L 2015 1929 L 1960 1855 C 1886 1756 1870 1756 1870 1855 L 1870 1930 L 1820 1930 L 1770 1930 L 1770 1730 z" stroke-linecap="round" />
</g>
		<g transform="matrix(0.13 0 0 -0.13 -68.48 36.39)"  >
<path style="stroke: none; stroke-width: 1; stroke-dasharray: none; stroke-linecap: butt; stroke-dashoffset: 0; stroke-linejoin: miter; stroke-miterlimit: 4; fill: rgb(161,44,47); fill-rule: nonzero; opacity: 1;" vector-effect="non-scaling-stroke"  transform=" translate(-2230, -1730)" d="M 2180 1730 L 2180 1530 L 2230 1530 L 2280 1530 L 2280 1730 L 2280 1930 L 2230 1930 L 2180 1930 L 2180 1730 z" stroke-linecap="round" />
</g>
		<g transform="matrix(0.13 0 0 -0.13 6.92 36.39)"  >
<path style="stroke: none; stroke-width: 1; stroke-dasharray: none; stroke-linecap: butt; stroke-dashoffset: 0; stroke-linejoin: miter; stroke-miterlimit: 4; fill: rgb(161,44,47); fill-rule: nonzero; opacity: 1;" vector-effect="non-scaling-stroke"  transform=" translate(-2795.5, -1730)" d="M 2330 1885 L 2330 1840 L 2375 1840 L 2420 1840 L 2420 1685 L 2420 1530 L 2470 1530 L 2520 1530 L 2520 1685 L 2520 1840 L 2615 1840 L 2710 1840 L 2710 1685 L 2710 1530 L 2755 1530 L 2800 1530 L 2800 1685 L 2800 1840 L 2849 1840 L 2899 1840 L 2902 1880 L 2905 1919 L 2968 1819 L 3030 1718 L 3030 1624 L 3030 1530 L 3080 1530 L 3130 1530 L 3130 1626 C 3130 1732 3125 1718 3224 1873 L 3261 1930 L 3206 1930 L 3151 1930 L 3120 1875 C 3103 1845 3085 1818 3080 1815 C 3075 1812 3057 1837 3039 1870 L 3007 1930 L 2669 1930 L 2330 1930 L 2330 1885 z" stroke-linecap="round" />
</g>
		<g transform="matrix(0.13 0 0 -0.13 97.59 36.63)"  >
<path style="stroke: none; stroke-width: 1; stroke-dasharray: none; stroke-linecap: butt; stroke-dashoffset: 0; stroke-linejoin: miter; stroke-miterlimit: 4; fill: rgb(161,44,47); fill-rule: nonzero; opacity: 1;" vector-effect="non-scaling-stroke"  transform=" translate(-3475.55, -1728.16)" d="M 3385 1911 C 3275 1862 3239 1727 3305 1615 C 3363 1514 3546 1496 3627 1582 C 3698 1657 3696 1818 3624 1882 C 3569 1931 3457 1944 3385 1911 z M 3548 1817 C 3594 1769 3596 1689 3554 1646 C 3485 1577 3369 1630 3370 1730 C 3371 1799 3413 1839 3486 1840 C 3516 1840 3532 1834 3548 1817 z" stroke-linecap="round" />
</g>
		<g transform="matrix(0.13 0 0 -0.13 -93.53 102.39)"  >
<path style="stroke: none; stroke-width: 1; stroke-dasharray: none; stroke-linecap: butt; stroke-dashoffset: 0; stroke-linejoin: miter; stroke-miterlimit: 4; fill: rgb(161,44,47); fill-rule: nonzero; opacity: 1;" vector-effect="non-scaling-stroke"  transform=" translate(-2042.12, -1235)" d="M 1960 1235 L 1960 1140 L 2011 1140 C 2074 1140 2098 1153 2115 1194 C 2126 1219 2127 1236 2119 1264 C 2107 1308 2069 1330 2005 1330 L 1960 1330 L 1960 1235 z M 2070 1275 C 2088 1253 2085 1198 2064 1183 C 2054 1176 2036 1170 2023 1170 C 2002 1170 2000 1174 2000 1230 C 2000 1289 2000 1290 2029 1290 C 2045 1290 2063 1283 2070 1275 z" stroke-linecap="round" />
</g>
		<g transform="matrix(0.13 0 0 -0.13 -67.15 102.39)"  >
<path style="stroke: none; stroke-width: 1; stroke-dasharray: none; stroke-linecap: butt; stroke-dashoffset: 0; stroke-linejoin: miter; stroke-miterlimit: 4; fill: rgb(161,44,47); fill-rule: nonzero; opacity: 1;" vector-effect="non-scaling-stroke"  transform=" translate(-2240, -1235)" d="M 2180 1235 L 2180 1140 L 2240 1140 C 2287 1140 2300 1143 2300 1155 C 2300 1166 2289 1170 2260 1170 C 2224 1170 2220 1173 2220 1195 C 2220 1218 2224 1220 2260 1220 C 2289 1220 2300 1224 2300 1235 C 2300 1246 2289 1250 2260 1250 C 2227 1250 2220 1253 2220 1270 C 2220 1287 2227 1290 2260 1290 C 2293 1290 2300 1293 2300 1310 C 2300 1328 2293 1330 2240 1330 L 2180 1330 L 2180 1235 z" stroke-linecap="round" />
</g>
		<g transform="matrix(0.13 0 0 -0.13 -43.15 102.39)"  >
<path style="stroke: none; stroke-width: 1; stroke-dasharray: none; stroke-linecap: butt; stroke-dashoffset: 0; stroke-linejoin: miter; stroke-miterlimit: 4; fill: rgb(161,44,47); fill-rule: nonzero; opacity: 1;" vector-effect="non-scaling-stroke"  transform=" translate(-2420, -1235)" d="M 2360 1235 L 2360 1140 L 2420 1140 C 2467 1140 2480 1143 2480 1155 C 2480 1166 2469 1170 2440 1170 L 2400 1170 L 2400 1250 C 2400 1323 2398 1330 2380 1330 C 2361 1330 2360 1323 2360 1235 z" stroke-linecap="round" />
</g>
		<g transform="matrix(0.13 0 0 -0.13 -19.15 102.39)"  >
<path style="stroke: none; stroke-width: 1; stroke-dasharray: none; stroke-linecap: butt; stroke-dashoffset: 0; stroke-linejoin: miter; stroke-miterlimit: 4; fill: rgb(161,44,47); fill-rule: nonzero; opacity: 1;" vector-effect="non-scaling-stroke"  transform=" translate(-2600, -1235)" d="M 2532 1313 C 2534 1303 2545 1294 2558 1292 C 2578 1289 2580 1283 2580 1229 C 2580 1173 2579 1170 2555 1170 C 2539 1170 2530 1164 2530 1155 C 2530 1143 2544 1140 2600 1140 C 2656 1140 2670 1143 2670 1155 C 2670 1164 2661 1170 2645 1170 C 2621 1170 2620 1173 2620 1230 C 2620 1287 2621 1290 2645 1290 C 2663 1290 2670 1295 2670 1310 C 2670 1328 2663 1330 2599 1330 C 2537 1330 2529 1328 2532 1313 z" stroke-linecap="round" />
</g>
		<g transform="matrix(0.13 0 0 -0.13 8.08 102.39)"  >
<path style="stroke: none; stroke-width: 1; stroke-dasharray: none; stroke-linecap: butt; stroke-dashoffset: 0; stroke-linejoin: miter; stroke-miterlimit: 4; fill: rgb(161,44,47); fill-rule: nonzero; opacity: 1;" vector-effect="non-scaling-stroke"  transform=" translate(-2804.19, -1235)" d="M 2720 1323 C 2720 1319 2734 1276 2751 1228 C 2777 1155 2786 1140 2804 1140 C 2821 1140 2830 1154 2854 1223 C 2870 1268 2885 1311 2888 1318 C 2890 1325 2884 1330 2872 1330 C 2856 1330 2847 1316 2830 1265 C 2818 1229 2805 1202 2801 1204 C 2797 1207 2785 1236 2775 1270 C 2761 1315 2752 1330 2738 1330 C 2728 1330 2720 1327 2720 1323 z" stroke-linecap="round" />
</g>
		<g transform="matrix(0.13 0 0 -0.13 34.85 102.39)"  >
<path style="stroke: none; stroke-width: 1; stroke-dasharray: none; stroke-linecap: butt; stroke-dashoffset: 0; stroke-linejoin: miter; stroke-miterlimit: 4; fill: rgb(161,44,47); fill-rule: nonzero; opacity: 1;" vector-effect="non-scaling-stroke"  transform=" translate(-3005, -1235)" d="M 2940 1235 L 2940 1140 L 3005 1140 C 3056 1140 3070 1143 3070 1155 C 3070 1166 3058 1170 3024 1170 C 2983 1170 2979 1172 2982 1193 C 2984 1211 2992 1216 3023 1218 C 3076 1223 3074 1250 3020 1250 C 2987 1250 2980 1253 2980 1270 C 2980 1287 2987 1290 3025 1290 C 3063 1290 3070 1293 3070 1310 C 3070 1328 3063 1330 3005 1330 L 2940 1330 L 2940 1235 z" stroke-linecap="round" />
</g>
		<g transform="matrix(0.13 0 0 -0.13 60.14 102.39)"  >
<path style="stroke: none; stroke-width: 1; stroke-dasharray: none; stroke-linecap: butt; stroke-dashoffset: 0; stroke-linejoin: miter; stroke-miterlimit: 4; fill: rgb(161,44,47); fill-rule: nonzero; opacity: 1;" vector-effect="non-scaling-stroke"  transform=" translate(-3194.66, -1235)" d="M 3120 1235 C 3120 1147 3121 1140 3140 1140 C 3156 1140 3160 1147 3160 1170 C 3160 1193 3164 1200 3180 1200 C 3192 1200 3206 1188 3215 1170 C 3224 1152 3238 1140 3251 1140 C 3270 1140 3270 1141 3255 1171 C 3240 1199 3240 1203 3254 1219 C 3276 1243 3274 1286 3250 1310 C 3235 1325 3217 1330 3175 1330 L 3120 1330 L 3120 1235 z M 3230 1266 C 3230 1249 3223 1240 3205 1236 C 3172 1228 3160 1235 3160 1266 C 3160 1287 3165 1290 3195 1290 C 3225 1290 3230 1287 3230 1266 z" stroke-linecap="round" />
</g>
		<g transform="matrix(0.13 0 0 -0.13 87 102.39)"  >
<path style="stroke: none; stroke-width: 1; stroke-dasharray: none; stroke-linecap: butt; stroke-dashoffset: 0; stroke-linejoin: miter; stroke-miterlimit: 4; fill: rgb(161,44,47); fill-rule: nonzero; opacity: 1;" vector-effect="non-scaling-stroke"  transform=" translate(-3396.13, -1235)" d="M 3331 1293 C 3343 1272 3360 1246 3367 1235 C 3374 1224 3380 1199 3380 1178 C 3380 1147 3384 1140 3400 1140 C 3416 1140 3420 1147 3420 1175 C 3420 1195 3430 1227 3443 1248 C 3491 1323 3493 1330 3470 1330 C 3457 1330 3442 1317 3429 1295 C 3417 1276 3405 1260 3401 1260 C 3396 1260 3385 1276 3374 1295 C 3361 1320 3349 1330 3332 1330 L 3308 1330 L 3331 1293 z" stroke-linecap="round" />
</g>
		<g transform="matrix(0.13 0 0 -0.13 -151.81 130.4)"  >
<path style="stroke: none; stroke-width: 1; stroke-dasharray: none; stroke-linecap: butt; stroke-dashoffset: 0; stroke-linejoin: miter; stroke-miterlimit: 4; fill: rgb(161,44,47); fill-rule: nonzero; opacity: 1;" vector-effect="non-scaling-stroke"  transform=" translate(-1605.03, -1024.9)" d="M 1590 1036 C 1590 1034 1598 1026 1608 1019 C 1623 1006 1624 1007 1611 1023 C 1598 1039 1590 1044 1590 1036 z" stroke-linecap="round" />
</g>
		<g transform="matrix(0.13 0 0 -0.13 49.63 191.69)"  >
<path style="stroke: none; stroke-width: 1; stroke-dasharray: none; stroke-linecap: butt; stroke-dashoffset: 0; stroke-linejoin: miter; stroke-miterlimit: 4; fill: rgb(161,44,47); fill-rule: nonzero; opacity: 1;" vector-effect="non-scaling-stroke"  transform=" translate(-3115.86, -565.19)" d="M 3108 563 C 3115 560 3124 561 3127 564 C 3131 567 3125 570 3114 569 C 3103 569 3100 566 3108 563 z" stroke-linecap="round" />
</g>
		<g transform="matrix(0.13 0 0 -0.13 44.3 193.03)"  >
<path style="stroke: none; stroke-width: 1; stroke-dasharray: none; stroke-linecap: butt; stroke-dashoffset: 0; stroke-linejoin: miter; stroke-miterlimit: 4; fill: rgb(161,44,47); fill-rule: nonzero; opacity: 1;" vector-effect="non-scaling-stroke"  transform=" translate(-3075.86, -555.19)" d="M 3068 553 C 3075 550 3084 551 3087 554 C 3091 557 3085 560 3074 559 C 3063 559 3060 556 3068 553 z" stroke-linecap="round" />
</g>
		<g transform="matrix(0.13 0 0 -0.13 6.21 202.42)"  >
<path style="stroke: none; stroke-width: 1; stroke-dasharray: none; stroke-linecap: butt; stroke-dashoffset: 0; stroke-linejoin: miter; stroke-miterlimit: 4; fill: rgb(161,44,47); fill-rule: nonzero; opacity: 1;" vector-effect="non-scaling-stroke"  transform=" translate(-2790.18, -484.75)" d="M 2778 483 C 2784 481 2796 481 2803 483 C 2809 486 2804 488 2790 488 C 2776 488 2771 486 2778 483 z" stroke-linecap="round" />
</g>
</g>
</g>
</svg>