<?xml version="1.0" standalone="no"?>
<!DOCTYPE svg PUBLIC "-//W3C//DTD SVG 20010904//EN"
 "http://www.w3.org/TR/2001/REC-SVG-20010904/DTD/svg10.dtd">
<svg version="1.0" xmlns="http://www.w3.org/2000/svg"
 width="531.000000pt" height="409.000000pt" viewBox="0 0 531.000000 409.000000"
 preserveAspectRatio="xMidYMid meet">

<g transform="translate(0.000000,409.000000) scale(0.100000,-0.100000)"
fill="#a12c2f" stroke="none">
<path d="M2555 3515 c-189 -25 -328 -67 -477 -141 -339 -170 -591 -450 -738
-820 -17 -42 -29 -78 -27 -81 2 -2 15 24 27 57 12 33 27 63 31 66 5 3 -2 -24
-15 -59 -40 -108 -74 -257 -86 -386 -7 -67 -10 -124 -8 -127 3 -2 10 49 17
113 7 65 25 168 41 228 26 105 89 280 97 271 2 -2 -6 -27 -17 -56 -11 -29 -19
-55 -16 -57 2 -3 7 6 11 19 15 48 109 226 159 298 74 108 262 293 375 369 114
75 177 108 295 151 195 71 345 95 541 87 216 -10 359 -47 560 -147 369 -184
639 -522 739 -926 31 -125 47 -285 40 -399 -7 -136 -43 -323 -85 -441 -52
-150 -161 -338 -257 -446 -24 -26 -39 -48 -34 -48 6 0 12 3 14 8 2 4 25 27 52
52 l49 45 -19 -34 c-31 -57 -187 -213 -275 -277 -45 -32 -96 -72 -113 -87
l-31 -29 40 23 c73 42 149 96 226 162 82 70 242 254 233 268 -3 5 2 12 10 15
9 3 14 10 11 14 -3 5 -1 11 4 15 19 11 131 245 162 336 17 51 39 135 50 188
26 126 36 379 19 460 -7 33 -9 68 -5 78 4 10 7 32 7 48 l-1 30 9 -29 c20 -63
33 -233 26 -346 -25 -432 -165 -761 -441 -1035 -154 -153 -338 -270 -543 -345
-40 -14 -70 -29 -66 -32 11 -11 -171 -54 -301 -71 -23 -3 -21 -4 12 -6 62 -2
234 34 348 73 429 144 778 484 929 904 28 79 32 95 15 72 -9 -12 -10 -12 -5 3
3 10 6 24 6 30 0 7 5 6 11 -3 8 -12 9 -11 4 6 -3 12 8 75 24 140 36 146 44
256 31 416 -22 247 -91 477 -196 645 -155 248 -338 426 -571 556 -103 58 -253
121 -313 131 -20 4 -3 -6 40 -22 196 -75 381 -188 501 -304 41 -40 57 -57 35
-37 -23 19 -66 56 -96 81 -177 145 -404 252 -635 298 -49 10 -76 19 -60 19 17
0 57 -6 90 -14 67 -16 107 -19 60 -4 -124 39 -367 55 -520 34z m1382 -673 c31
-46 78 -132 104 -192 47 -105 100 -265 98 -299 0 -9 -11 20 -23 64 -13 44 -35
112 -50 150 -30 78 -126 264 -160 310 -12 17 -35 48 -50 70 -28 40 -28 40 -2
10 15 -16 52 -68 83 -113z m221 -468 c-3 -14 -5 -12 -10 9 -3 19 -2 25 4 19 6
-6 8 -18 6 -28z m-11 -76 c-3 -7 -5 -2 -5 12 0 14 2 19 5 13 2 -7 2 -19 0 -25z
m-94 -983 c-3 -9 -8 -14 -10 -11 -3 3 -2 9 2 15 9 16 15 13 8 -4z m-29 -57
c-39 -77 -145 -219 -227 -305 -89 -93 -225 -203 -301 -242 -28 -15 -33 -16
-16 -4 266 195 414 347 524 536 32 53 45 64 20 15z"/>
<path d="M2647 2852 c-23 -25 -21 -65 3 -87 11 -10 21 -16 23 -14 2 2 11 16
20 32 13 19 26 27 47 27 16 0 32 5 35 10 3 6 0 10 -7 10 -7 0 -19 9 -26 20
-16 26 -73 27 -95 2z"/>
<path d="M2718 2770 c-23 -24 -24 -27 -7 -23 18 5 46 40 37 48 -2 1 -15 -10
-30 -25z"/>
<path d="M2632 2722 c-16 -11 -64 -177 -60 -211 3 -26 4 -26 90 -29 l86 -3 13
-70 c14 -76 29 -106 48 -94 15 9 5 182 -11 202 -5 7 -36 15 -69 19 -56 6 -59
8 -59 34 0 16 3 35 6 44 5 14 9 14 30 -3 13 -10 44 -22 68 -25 24 -4 49 -12
54 -19 17 -21 92 -216 92 -241 0 -30 -36 -46 -104 -46 -109 0 -141 31 -111
104 25 60 18 66 -85 66 l-90 0 0 80 0 80 -35 0 c-31 0 -35 -3 -35 -25 0 -18
-5 -25 -20 -25 -15 0 -20 7 -20 25 0 22 -4 25 -35 25 l-35 0 0 -99 c0 -113 -1
-111 87 -111 l55 0 -31 -35 c-52 -60 -57 -128 -8 -133 18 -2 27 -9 27 -21 0
-53 82 -96 131 -71 31 16 58 50 59 73 0 15 12 17 118 17 l118 0 13 -36 c9 -26
23 -40 48 -50 73 -31 138 15 131 93 -2 24 1 44 7 46 19 7 -28 60 -66 75 -21 8
-41 24 -45 35 -3 11 -31 55 -60 98 -30 43 -54 82 -54 88 0 6 9 11 21 11 16 0
20 5 17 28 -2 23 -8 28 -36 30 -22 2 -41 -3 -53 -13 -13 -13 -27 -16 -54 -11
-19 4 -35 10 -35 15 0 13 -71 91 -83 91 -7 0 -18 -4 -25 -8z m412 -461 c23
-26 17 -63 -13 -78 -41 -20 -94 26 -73 64 9 15 11 14 23 -5 20 -31 33 -27 26
8 -8 35 10 41 37 11z m-414 -39 c0 -14 -25 -41 -40 -42 -27 -4 -38 0 -54 16
-27 26 -18 34 39 34 30 0 55 -4 55 -8z"/>
<path d="M1361 2464 c0 -11 3 -14 6 -6 3 7 2 16 -1 19 -3 4 -6 -2 -5 -13z"/>
<path d="M1341 2394 c0 -11 3 -14 6 -6 3 7 2 16 -1 19 -3 4 -6 -2 -5 -13z"/>
<path d="M1331 2354 c0 -11 3 -14 6 -6 3 7 2 16 -1 19 -3 4 -6 -2 -5 -13z"/>
<path d="M4162 2260 c0 -14 2 -19 5 -12 2 6 2 18 0 25 -3 6 -5 1 -5 -13z"/>
<path d="M1301 2184 c0 -11 3 -14 6 -6 3 7 2 16 -1 19 -3 4 -6 -2 -5 -13z"/>
<path d="M1770 1730 l0 -200 50 0 50 0 0 80 c0 63 3 80 14 80 8 0 41 -36 72
-80 l58 -80 63 0 64 0 -76 101 c-42 55 -75 106 -72 112 2 7 34 49 71 94 36 45
66 84 66 88 0 3 -26 5 -57 5 l-58 -1 -55 -74 c-74 -99 -90 -99 -90 0 l0 75
-50 0 -50 0 0 -200z"/>
<path d="M2180 1730 l0 -200 50 0 50 0 0 200 0 200 -50 0 -50 0 0 -200z"/>
<path d="M2330 1885 l0 -45 45 0 45 0 0 -155 0 -155 50 0 50 0 0 155 0 155 95
0 95 0 0 -155 0 -155 45 0 45 0 0 155 0 155 49 0 50 0 3 40 3 39 63 -100 62
-101 0 -94 0 -94 50 0 50 0 0 96 c0 106 -5 92 94 247 l37 57 -55 0 -55 0 -31
-55 c-17 -30 -35 -57 -40 -60 -5 -3 -23 22 -41 55 l-32 60 -338 0 -339 0 0
-45z"/>
<path d="M3385 1911 c-110 -49 -146 -184 -80 -296 58 -101 241 -119 322 -33
71 75 69 236 -3 300 -55 49 -167 62 -239 29z m163 -94 c46 -48 48 -128 6 -171
-69 -69 -185 -16 -184 84 1 69 43 109 116 110 30 0 46 -6 62 -23z"/>
<path d="M1960 1235 l0 -95 51 0 c63 0 87 13 104 54 11 25 12 42 4 70 -12 44
-50 66 -114 66 l-45 0 0 -95z m110 40 c18 -22 15 -77 -6 -92 -10 -7 -28 -13
-41 -13 -21 0 -23 4 -23 60 0 59 0 60 29 60 16 0 34 -7 41 -15z"/>
<path d="M2180 1235 l0 -95 60 0 c47 0 60 3 60 15 0 11 -11 15 -40 15 -36 0
-40 3 -40 25 0 23 4 25 40 25 29 0 40 4 40 15 0 11 -11 15 -40 15 -33 0 -40 3
-40 20 0 17 7 20 40 20 33 0 40 3 40 20 0 18 -7 20 -60 20 l-60 0 0 -95z"/>
<path d="M2360 1235 l0 -95 60 0 c47 0 60 3 60 15 0 11 -11 15 -40 15 l-40 0
0 80 c0 73 -2 80 -20 80 -19 0 -20 -7 -20 -95z"/>
<path d="M2532 1313 c2 -10 13 -19 26 -21 20 -3 22 -9 22 -63 0 -56 -1 -59
-25 -59 -16 0 -25 -6 -25 -15 0 -12 14 -15 70 -15 56 0 70 3 70 15 0 9 -9 15
-25 15 -24 0 -25 3 -25 60 0 57 1 60 25 60 18 0 25 5 25 20 0 18 -7 20 -71 20
-62 0 -70 -2 -67 -17z"/>
<path d="M2720 1323 c0 -4 14 -47 31 -95 26 -73 35 -88 53 -88 17 0 26 14 50
83 16 45 31 88 34 95 2 7 -4 12 -16 12 -16 0 -25 -14 -42 -65 -12 -36 -25 -63
-29 -61 -4 3 -16 32 -26 66 -14 45 -23 60 -37 60 -10 0 -18 -3 -18 -7z"/>
<path d="M2940 1235 l0 -95 65 0 c51 0 65 3 65 15 0 11 -12 15 -46 15 -41 0
-45 2 -42 23 2 18 10 23 41 25 53 5 51 32 -3 32 -33 0 -40 3 -40 20 0 17 7 20
45 20 38 0 45 3 45 20 0 18 -7 20 -65 20 l-65 0 0 -95z"/>
<path d="M3120 1235 c0 -88 1 -95 20 -95 16 0 20 7 20 30 0 23 4 30 20 30 12
0 26 -12 35 -30 9 -18 23 -30 36 -30 19 0 19 1 4 31 -15 28 -15 32 -1 48 22
24 20 67 -4 91 -15 15 -33 20 -75 20 l-55 0 0 -95z m110 31 c0 -17 -7 -26 -25
-30 -33 -8 -45 -1 -45 30 0 21 5 24 35 24 30 0 35 -3 35 -24z"/>
<path d="M3331 1293 c12 -21 29 -47 36 -58 7 -11 13 -36 13 -57 0 -31 4 -38
20 -38 16 0 20 7 20 35 0 20 10 52 23 73 48 75 50 82 27 82 -13 0 -28 -13 -41
-35 -12 -19 -24 -35 -28 -35 -5 0 -16 16 -27 35 -13 25 -25 35 -42 35 l-24 0
23 -37z"/>
<path d="M1590 1036 c0 -2 8 -10 18 -17 15 -13 16 -12 3 4 -13 16 -21 21 -21
13z"/>
<path d="M3108 563 c7 -3 16 -2 19 1 4 3 -2 6 -13 5 -11 0 -14 -3 -6 -6z"/>
<path d="M3068 553 c7 -3 16 -2 19 1 4 3 -2 6 -13 5 -11 0 -14 -3 -6 -6z"/>
<path d="M2778 483 c6 -2 18 -2 25 0 6 3 1 5 -13 5 -14 0 -19 -2 -12 -5z"/>
</g>
</svg>
